<svg width="694" height="126" viewBox="0 0 694 126" fill="none" xmlns="http://www.w3.org/2000/svg">
<path fill-rule="evenodd" clip-rule="evenodd" d="M103.547 81.5498C102.255 81.0103 99.5386 80.0756 94.75 79.25C89.947 78.4219 84.5955 79.2396 81.5301 79.8859C84.2646 81.2428 88.0711 82.0542 91.3122 82.7451L91.5875 82.8038C94.273 83.3768 96.6242 83.8843 98.3518 84.5213C99.2131 84.8389 99.7405 85.127 100.025 85.3508C100.062 85.3799 100.091 85.4044 100.113 85.4243C100.247 86.7883 99.9016 87.554 99.4802 88.0736C98.9646 88.7094 98.0994 89.2574 96.859 89.7336C96.8636 89.7319 96.8617 89.7323 96.8527 89.7344C96.8093 89.7443 96.5999 89.7922 96.1418 89.8176C95.6402 89.8456 94.9993 89.8395 94.2411 89.7994C92.7274 89.7194 90.9174 89.5135 89.1451 89.2665C87.382 89.0208 85.7002 88.7407 84.4562 88.5213C83.8353 88.4118 83.3259 88.3179 82.973 88.2516C82.7966 88.2184 82.6594 88.1922 82.5672 88.1745L82.4632 88.1543L82.432 88.1482L82.4308 88.148L81.8343 88.0306L81.2487 88.1907L81.2469 88.1912L81.2351 88.1944L81.1801 88.2091C81.1487 88.2174 81.107 88.2284 81.0555 88.2418L80.9505 88.2688C80.7469 88.321 80.4461 88.3962 80.0682 88.4853C79.3107 88.6637 78.2514 88.896 77.0485 89.1106C74.57 89.5527 71.7531 89.868 69.7028 89.6266C69.0141 89.5456 68.3689 89.425 67.7588 89.2677C64.0071 88.3005 61.5795 85.946 58.4879 82.8708L58.4195 82.8028C56.1771 80.5721 53.5833 77.9918 50.0162 75.9039C45.5594 73.2954 40.5934 72.1116 36.3373 71.097L36.3372 71.097L36.1871 71.0612C32.7479 70.2412 29.8692 69.5419 27.5568 68.4075C25.3546 67.3272 23.8568 65.9403 23.0321 63.7919C22.3363 61.9791 22.5233 60.5613 23.1763 59.1542C23.907 57.5797 25.1908 56.0709 26.8323 54.1791L27.0509 53.9275L27.0509 53.9274C29.7023 50.8768 33.2689 46.7732 32.756 41.0173C32.4007 37.03 31.5677 34.7623 30.2306 31.3156C28.6527 27.2486 25.0177 21.6482 22.8258 18.4276L21.0828 15.8665L18.8719 18.0366C7.22778 29.4656 0 45.3911 0 63C0 97.7939 28.2061 126 63 126C97.7939 126 126 97.7939 126 63C126 28.2061 97.7939 0 63 0C56.1058 0 49.4653 1.10834 43.25 3.15855L40.3491 4.11543L41.7684 6.82026C43.6118 10.3333 46.6801 16.5764 50.337 24.0177L50.346 24.0361C51.3238 26.0258 52.3426 28.0989 53.3894 30.2243C54.6061 32.6949 55.8607 35.2361 57.1328 37.7994C55.5367 30.4516 53.665 23.1963 51.5205 17.0001C50.4604 13.9367 48.7742 9.51597 48.1994 8.01843C48.0583 7.7383 47.9204 7.46534 47.7859 7.19986C48.3388 7.04946 48.8951 6.90705 49.4546 6.77277L50 6.5001L50.1406 6.61259C54.2744 5.674 58.578 5.17808 63 5.17808C94.9342 5.17808 120.822 31.0658 120.822 63C120.822 94.9342 94.9342 120.822 63 120.822C31.0658 120.822 5.17808 94.9342 5.17808 63C5.17808 47.9706 10.9092 34.2839 20.3106 23.9995C22.2586 27.0095 24.3939 30.5875 25.4031 33.1886C26.6933 36.5142 27.3093 38.2329 27.5983 41.4768C27.8998 44.8598 25.8731 47.3836 22.9213 50.7855L22.806 50.9184C21.3064 52.6458 19.5481 54.6714 18.4793 56.9745C17.3053 59.5045 16.9442 62.3814 18.198 65.6476C19.6086 69.3224 22.2332 71.5635 25.2762 73.0564C28.1597 74.4709 31.5811 75.2865 34.8198 76.0584L34.8199 76.0585L34.9862 76.0981C39.396 77.1495 43.6641 78.1859 47.4006 80.3728C50.361 82.1056 52.5448 84.2626 54.8362 86.5419L54.9756 86.6807C58.4764 90.164 62.301 93.9695 69.0977 94.7692C71.9478 95.1047 75.3962 94.6651 77.9578 94.2082C79.2749 93.9733 80.4294 93.72 81.2558 93.5253C81.5533 93.4552 81.8099 93.3925 82.0168 93.3406C82.386 93.41 82.9146 93.5074 83.557 93.6207C84.8397 93.8469 86.5864 94.138 88.4303 94.395C90.265 94.6507 92.2406 94.8789 93.9677 94.9703C94.8299 95.0159 95.6733 95.0298 96.4294 94.9877C97.134 94.9485 97.9745 94.852 98.715 94.5677C100.331 93.9473 102.164 92.9854 103.502 91.3353C104.917 89.5909 105.57 87.3379 105.232 84.6121C105.066 83.2686 104.346 82.2639 103.547 81.5498ZM41.836 53.212C41.6761 52.0421 40.6037 51.2163 39.4292 51.3639C38.247 51.5126 37.4091 52.5915 37.5577 53.7738L39.6984 53.5046C37.5577 53.7738 37.5579 53.7749 37.558 53.7761L37.5583 53.7785L37.559 53.7837L37.5605 53.7954L37.5645 53.824C37.5676 53.8454 37.5715 53.8714 37.5764 53.9017C37.5862 53.9624 37.6 54.0405 37.619 54.1341C37.6568 54.3209 37.7155 54.5713 37.8045 54.8684C37.9818 55.4597 38.2848 56.2542 38.7966 57.1045C39.8412 58.8402 41.7275 60.7492 44.9699 61.618C48.2123 62.4868 50.8004 61.7767 52.5729 60.7958C53.4412 60.3154 54.1009 59.7788 54.5501 59.3554C54.7757 59.1426 54.9518 58.9551 55.0779 58.8122C55.1411 58.7406 55.1922 58.6798 55.231 58.6323C55.2504 58.6085 55.2668 58.5879 55.2801 58.5709L55.2979 58.5481L55.3051 58.5387L55.3083 58.5346L55.3097 58.5326C55.3105 58.5317 55.3112 58.5308 53.5919 57.2273L55.3112 58.5308C56.031 57.5812 55.8448 56.2279 54.8953 55.508C53.952 54.7929 52.6103 54.9719 51.8869 55.9051C51.8851 55.9073 51.8821 55.911 51.8778 55.9161C51.8702 55.9252 51.8587 55.9387 51.8433 55.9561C51.7951 56.0108 51.7102 56.1023 51.59 56.2157C51.3473 56.4445 50.9752 56.7483 50.4837 57.0203C49.5366 57.5443 48.0929 57.9876 46.0867 57.45C44.0805 56.9124 43.0518 55.8067 42.4937 54.8794C42.204 54.398 42.0337 53.9489 41.9379 53.6294C41.8905 53.4711 41.8627 53.3494 41.8483 53.2779C41.8411 53.2424 41.8373 53.2198 41.836 53.212ZM53.5574 57.2012C51.8726 55.9239 51.8732 55.923 51.8739 55.9221L51.8725 55.9239L53.5574 57.2012Z" fill="#03045E"/>
<path d="M161.16 32.97H195.36L193.74 46.2H174.75L173.49 56.37H190.77L189.15 69.51H171.87L168.99 93H153.78L161.16 32.97ZM234.665 31.8C252.845 31.8 265.355 42.96 266.075 59.97C266.075 60.33 266.075 60.78 266.075 61.14C266.075 80.85 252.935 94.17 233.495 94.17C213.965 94.17 200.735 81.93 200.735 63.84C200.735 45.03 214.775 31.8 234.665 31.8ZM250.505 62.76C250.505 62.4 250.505 62.04 250.415 61.68C249.875 52.23 243.485 46.2 234.035 46.2C223.775 46.2 216.305 53.4 216.305 63.3C216.305 73.2 223.055 79.77 233.135 79.77C243.395 79.77 250.505 72.84 250.505 62.76ZM307.087 31.8C325.267 31.8 337.777 42.96 338.497 59.97C338.497 60.33 338.497 60.78 338.497 61.14C338.497 80.85 325.357 94.17 305.917 94.17C286.387 94.17 273.157 81.93 273.157 63.84C273.157 45.03 287.197 31.8 307.087 31.8ZM322.927 62.76C322.927 62.4 322.927 62.04 322.837 61.68C322.297 52.23 315.907 46.2 306.457 46.2C296.197 46.2 288.727 53.4 288.727 63.3C288.727 73.2 295.477 79.77 305.557 79.77C315.817 79.77 322.927 72.84 322.927 62.76ZM385.538 46.2H372.758L366.908 93H351.788L357.548 46.2H344.768L346.388 32.97H387.158L385.538 46.2Z" fill="#03045E"/>
<path d="M428.814 32.97L427.554 43.05H407.394L405.774 56.46H424.674L423.414 66.54H404.514L401.274 93H389.574L396.954 32.97H428.814ZM465.949 93L462.169 80.4H437.959L431.119 93H418.159L451.729 32.97H460.549L478.279 93H465.949ZM442.819 70.86H459.919L454.159 49.26L442.819 70.86ZM529.164 77.16L527.454 90.84C525.024 92.1 520.254 94.35 512.604 94.35C501.714 94.35 495.324 90.03 492.174 86.97C486.234 81.3 484.164 74.01 484.164 66.81C484.164 55.47 488.304 46.38 493.794 40.8C501.624 32.97 511.344 31.62 518.454 31.62C522.324 31.62 527.814 31.98 534.294 35.31L532.674 48.81C527.634 42.96 521.154 42.24 517.374 42.24C509.814 42.24 505.224 45.39 502.344 48.45C498.384 52.68 496.314 59.07 496.314 65.1C496.314 71.67 498.834 75.9 501.354 78.6C504.774 82.2 509.184 83.82 514.314 83.82C523.404 83.82 527.634 79.23 529.164 77.16ZM576.542 43.05H563.042L556.922 93H545.222L551.342 43.05H537.842L539.102 32.97H577.802L576.542 43.05ZM612.623 31.62C621.173 31.62 628.643 34.77 633.413 39.36C637.913 43.68 641.333 50.43 641.333 59.34C641.333 68.88 637.733 78.33 631.703 84.54C626.933 89.49 618.833 94.35 606.683 94.35C594.893 94.35 588.143 89.58 584.633 85.98C579.683 80.94 576.713 73.65 576.713 66.09C576.713 56.19 580.853 46.92 587.063 41.07C593.363 35.13 602.723 31.62 612.623 31.62ZM607.313 83.73C613.343 83.73 618.473 81.3 622.073 77.79C626.393 73.56 629.183 66.99 629.183 60.24C629.183 54.84 627.203 50.43 624.413 47.55C621.803 44.85 617.303 42.33 610.733 42.33C604.253 42.33 599.213 44.85 595.793 48.09C591.203 52.41 588.863 58.71 588.863 65.19C588.863 71.58 591.293 75.81 593.633 78.24C596.873 81.66 601.733 83.73 607.313 83.73ZM655.792 32.97H673.162C677.752 32.97 683.692 33.6 688.102 38.19C690.172 40.35 692.332 43.95 692.332 49.71C692.332 55.38 690.262 59.88 687.382 62.67C684.682 65.28 680.272 67.26 676.312 67.89L691.612 93H677.572L664.522 68.88H663.082L660.112 93H648.412L655.792 32.97ZM666.322 42.51L664.072 60.6H668.212C671.362 60.6 675.322 59.7 677.572 57.45C678.652 56.37 680.182 54.21 680.182 50.61C680.182 48.9 679.822 46.56 677.752 44.76C676.312 43.5 673.882 42.51 670.012 42.51H666.322Z" fill="#3EA960"/>
</svg>
